<?xml version="1.0" encoding="UTF-8"?>
<svg version="1.1" xmlns="http://www.w3.org/2000/svg" width="225" height="225">
<path d="M0 0 C74.25 0 148.5 0 225 0 C225 74.25 225 148.5 225 225 C150.75 225 76.5 225 0 225 C0 150.75 0 76.5 0 0 Z " fill="#656565" transform="translate(0,0)"/>
<path d="M0 0 C1.64412391 -0.01452096 3.28862933 -0.00114019 4.93244934 0.03364563 C6.2790992 0.03255043 6.2790992 0.03255043 7.6529541 0.03143311 C10.6240912 0.03492006 13.5936658 0.07383347 16.56452942 0.11299133 C18.62289575 0.12231552 20.68127316 0.12943349 22.73965454 0.13442993 C28.16016722 0.1535307 33.58001115 0.20265846 39.0002594 0.25794983 C44.53005424 0.3090757 50.05995704 0.33192975 55.58992004 0.35713196 C66.44242759 0.41077385 77.29443854 0.49612422 88.14656067 0.60127258 C87.11009906 2.15596499 86.07285109 3.71016757 85.02546692 5.25752258 C83.69194012 8.81359404 83.97929846 12.36157931 84.08406067 16.10127258 C84.27928209 24.61871066 84.27928209 24.61871066 83.14656067 28.60127258 C81.82656067 28.93127258 80.50656067 29.26127258 79.14656067 29.60127258 C79.64156067 30.59127258 79.64156067 30.59127258 80.14656067 31.60127258 C79.36281067 31.53939758 78.57906067 31.47752258 77.77156067 31.41377258 C76.47218567 31.50658508 76.47218567 31.50658508 75.14656067 31.60127258 C74.48656067 32.59127258 73.82656067 33.58127258 73.14656067 34.60127258 C72.30093567 35.09627258 71.45531067 35.59127258 70.58406067 36.10127258 C67.8485413 37.42496424 67.8485413 37.42496424 67.14656067 40.60127258 C66.69796692 41.03310852 66.24937317 41.46494446 65.78718567 41.90986633 C63.53944132 44.22718372 62.33849026 46.78341322 60.89656067 49.66377258 C60.35515442 50.72724915 59.81374817 51.79072571 59.25593567 52.88642883 C58.88984192 53.78232727 58.52374817 54.67822571 58.14656067 55.60127258 C58.47656067 56.26127258 58.80656067 56.92127258 59.14656067 57.60127258 C58.69281067 57.95189758 58.23906067 58.30252258 57.77156067 58.66377258 C55.49171104 61.38205484 54.99878519 64.19237448 54.14656067 67.60127258 C53.65156067 69.08627258 53.65156067 69.08627258 53.14656067 70.60127258 C30.37656067 70.60127258 7.60656067 70.60127258 -15.85343933 70.60127258 C-19.22843933 62.72627258 -19.22843933 62.72627258 -18.85343933 57.60127258 C-22.15343933 57.27127258 -25.45343933 56.94127258 -28.85343933 56.60127258 C-28.37906433 55.96189758 -27.90468933 55.32252258 -27.41593933 54.66377258 C-24.49913897 48.94684387 -24.61116576 43.81264045 -25.85343933 37.60127258 C-21.89343933 37.60127258 -17.93343933 37.60127258 -13.85343933 37.60127258 C-13.74773621 36.53263977 -13.64203308 35.46400696 -13.53312683 34.36299133 C-12.81053602 28.60635122 -11.3862615 23.03476014 -9.97843933 17.41377258 C-9.59365417 15.81372375 -9.59365417 15.81372375 -9.20109558 14.18135071 C-8.81631042 12.6354425 -8.81631042 12.6354425 -8.42375183 11.05830383 C-8.19445984 10.12993713 -7.96516785 9.20157043 -7.72892761 8.24507141 C-5.27094363 0.8224533 -5.27094363 0.8224533 0 0 Z " fill="#646464" transform="translate(109.85343933105469,-0.6012725830078125)"/>
<path d="M0 0 C26.07 0 52.14 0 79 0 C77.68 4.29 76.36 8.58 75 13 C73.92739122 17.12107584 72.87876922 21.23777133 71.875 25.375 C70.34777577 31.61703954 68.79238367 37.82885448 67 44 C66.60742649 45.55817756 66.22953511 47.12022973 65.875 48.6875 C65.70742187 49.41324219 65.53984375 50.13898437 65.3671875 50.88671875 C64.88587503 53.299335 64.88587503 53.299335 65 57 C52.79 57 40.58 57 28 57 C24.375 48.8125 24.375 48.8125 23.27490234 46.26098633 C20.91809282 41.1055421 18.52333745 38.38940491 14 35 C13.34 34.01 12.68 33.02 12 32 C8.58490025 29.72326683 5.00233754 29.53116005 1 29 C1.01740234 27.46279297 1.01740234 27.46279297 1.03515625 25.89453125 C1.04454022 24.533856 1.05363977 23.17317876 1.0625 21.8125 C1.07087891 21.13896484 1.07925781 20.46542969 1.08789062 19.77148438 C1.10156302 16.96864355 1.06743092 14.32460932 0.49609375 11.57421875 C-0.23465605 7.78237529 0 3.86161522 0 0 Z " fill="#747474" transform="translate(27,0)"/>
<path d="M0 0 C17.16 0.33 34.32 0.66 52 1 C43.30912448 19.46811048 43.30912448 19.46811048 39.0625 26.9375 C35.7917861 32.91937314 33.5014887 38.02084178 34 45 C34.0825 46.27875 34.165 47.5575 34.25 48.875 C35.03675575 52.15314896 35.67723578 53.60325026 38 56 C40.50074174 56.64070996 40.50074174 56.64070996 43.32421875 56.609375 C44.86625977 56.65771484 44.86625977 56.65771484 46.43945312 56.70703125 C47.51130859 56.72121094 48.58316406 56.73539063 49.6875 56.75 C51.31268555 56.79447266 51.31268555 56.79447266 52.97070312 56.83984375 C55.64721059 56.91058844 58.32284479 56.96326156 61 57 C59.77053131 61.39095959 58.44521205 65.66436384 57 70 C34.23 70 11.46 70 -12 70 C-15.375 62.125 -15.375 62.125 -15 57 C-18.3 56.67 -21.6 56.34 -25 56 C-24.525625 55.360625 -24.05125 54.72125 -23.5625 54.0625 C-20.64569963 48.34557128 -20.75772643 43.21136787 -22 37 C-18.04 37 -14.08 37 -10 37 C-9.89429687 35.93136719 -9.78859375 34.86273438 -9.6796875 33.76171875 C-8.95709669 28.00507863 -7.53282217 22.43348755 -6.125 16.8125 C-5.74021484 15.21245117 -5.74021484 15.21245117 -5.34765625 13.58007812 C-4.96287109 12.03416992 -4.96287109 12.03416992 -4.5703125 10.45703125 C-4.34102051 9.52866455 -4.11172852 8.60029785 -3.87548828 7.64379883 C-3 5 -3 5 0 0 Z " fill="#000000" transform="translate(106,0)"/>
</svg>
